<svg width="26" height="23" viewBox="0 0 26 23" fill="none" xmlns="http://www.w3.org/2000/svg">
<g clip-path="url(#clip0_158_290)">
<path fill-rule="evenodd" clip-rule="evenodd" d="M20.5242 1.3652e-05C21.7919 0.000599472 23.0202 0.444439 23.9998 1.25593C24.9795 2.06741 25.6499 3.19635 25.8968 4.45043C26.1438 5.70451 25.952 7.00615 25.3542 8.13363C24.7564 9.26111 23.7895 10.1447 22.6182 10.6338C21.447 11.123 20.1438 11.1874 18.9307 10.8163C17.7176 10.4451 16.6696 9.66118 15.9652 8.59812C15.2609 7.53506 14.9437 6.25859 15.0678 4.98616C15.1919 3.71373 15.7496 2.52403 16.6458 1.61975C17.1542 1.1049 17.7587 0.696695 18.4244 0.418694C19.09 0.140692 19.8037 -0.0016048 20.5242 1.3652e-05ZM0.774495 2.32398C0.566302 2.32398 0.366636 2.24056 0.219421 2.09209C0.0722064 1.94361 -0.010498 1.74223 -0.010498 1.53225C-0.010498 1.32227 0.0722064 1.12089 0.219421 0.972415C0.366636 0.823937 0.566302 0.740523 0.774495 0.740523H1.92765C2.58784 0.73284 3.23779 0.905387 3.80867 1.23989C4.84969 1.90571 5.03377 2.85535 5.28979 3.92664H14.113C13.988 4.43854 13.9241 4.96368 13.9226 5.49088H5.74259L7.51147 12.2046H20.0523V12.1661C20.2047 12.1768 20.357 12.1832 20.5115 12.1832C20.8988 12.1829 21.2853 12.1486 21.6667 12.0808L21.3938 13.1862C21.3551 13.3585 21.259 13.5122 21.1216 13.6217C20.9841 13.7312 20.8136 13.7899 20.6384 13.788H7.9283C8.2076 14.8294 8.48478 15.3907 8.86352 15.6532C9.32056 15.9519 10.1161 15.9733 11.447 15.9519H20.448C20.5532 15.9464 20.6585 15.9625 20.7574 15.9993C20.8562 16.0361 20.9466 16.0928 21.0231 16.166C21.0995 16.2391 21.1604 16.3272 21.202 16.4249C21.2436 16.5226 21.265 16.6277 21.265 16.734C21.265 16.8403 21.2436 16.9455 21.202 17.0432C21.1604 17.1408 21.0995 17.2289 21.0231 17.3021C20.9466 17.3753 20.8562 17.432 20.7574 17.4688C20.6585 17.5056 20.5532 17.5217 20.448 17.5162H11.4661C9.81779 17.5354 8.80428 17.497 7.98755 16.9549C7.17082 16.4129 6.71802 15.4312 6.28003 13.6877L3.61613 3.52544C3.61613 3.50623 3.61613 3.50623 3.59709 3.48489C3.56249 3.30213 3.49185 3.12824 3.38935 2.97355C3.28685 2.81885 3.15459 2.68649 3.00041 2.58433C2.66707 2.39411 2.28684 2.30379 1.90438 2.32398H0.774495ZM12.8795 7.14263C12.9032 7.01554 12.9702 6.90082 13.069 6.81827C13.1677 6.73573 13.2919 6.69056 13.4201 6.69056C13.5483 6.69056 13.6725 6.73573 13.7712 6.81827C13.8699 6.90082 13.9369 7.01554 13.9607 7.14263V10.1644C13.9369 10.2915 13.8699 10.4062 13.7712 10.4888C13.6725 10.5713 13.5483 10.6165 13.4201 10.6165C13.2919 10.6165 13.1677 10.5713 13.069 10.4888C12.9702 10.4062 12.9032 10.2915 12.8795 10.1644V7.14263ZM9.64217 7.14263C9.66592 7.01554 9.73294 6.90082 9.83165 6.81827C9.93036 6.73573 10.0546 6.69056 10.1828 6.69056C10.311 6.69056 10.4352 6.73573 10.5339 6.81827C10.6326 6.90082 10.6996 7.01554 10.7234 7.14263V10.1644C10.6996 10.2915 10.6326 10.4062 10.5339 10.4888C10.4352 10.5713 10.311 10.6165 10.1828 10.6165C10.0546 10.6165 9.93036 10.5713 9.83165 10.4888C9.73294 10.4062 9.66592 10.2915 9.64217 10.1644V7.14263ZM18.1248 18.4381C18.5014 18.4381 18.8696 18.5507 19.1827 18.7617C19.4959 18.9728 19.74 19.2728 19.8841 19.6237C20.0282 19.9747 20.0659 20.3608 19.9925 20.7334C19.919 21.106 19.7376 21.4482 19.4713 21.7168C19.205 21.9854 18.8657 22.1683 18.4963 22.2424C18.1269 22.3165 17.744 22.2785 17.396 22.1331C17.048 21.9878 16.7506 21.7416 16.5414 21.4257C16.3321 21.1099 16.2205 20.7386 16.2205 20.3587C16.2205 19.8493 16.4211 19.3608 16.7782 19.0006C17.1353 18.6404 17.6197 18.4381 18.1248 18.4381ZM9.75643 18.4381C10.1331 18.4381 10.5012 18.5507 10.8144 18.7617C11.1276 18.9728 11.3716 19.2728 11.5158 19.6237C11.6599 19.9747 11.6976 20.3608 11.6241 20.7334C11.5507 21.106 11.3693 21.4482 11.103 21.7168C10.8366 21.9854 10.4973 22.1683 10.1279 22.2424C9.75854 22.3165 9.37565 22.2785 9.02769 22.1331C8.67972 21.9878 8.38231 21.7416 8.17306 21.4257C7.96382 21.1099 7.85213 20.7386 7.85213 20.3587C7.85213 19.8493 8.05276 19.3608 8.40989 19.0006C8.76701 18.6404 9.25138 18.4381 9.75643 18.4381ZM23.315 5.01286V6.03933C23.3139 6.15614 23.2674 6.26786 23.1855 6.35046C23.1036 6.43306 22.9929 6.47996 22.877 6.48107H21.4679V7.89594C21.4673 8.01292 21.421 8.12496 21.339 8.20768C21.2569 8.2904 21.1459 8.33712 21.0299 8.33768H20.0121C19.896 8.33768 19.7846 8.29114 19.7024 8.2083C19.6203 8.12546 19.5741 8.0131 19.5741 7.89594V6.48107H18.165C18.049 6.48051 17.9379 6.43379 17.8559 6.35107C17.7738 6.26835 17.7275 6.15631 17.727 6.03933V5.01286C17.727 4.8957 17.7731 4.78334 17.8553 4.7005C17.9374 4.61766 18.0488 4.57111 18.165 4.57111H19.5741V3.14985C19.5741 3.03269 19.6203 2.92033 19.7024 2.83749C19.7846 2.75464 19.896 2.7081 20.0121 2.7081H21.0299C21.1459 2.70866 21.2569 2.75538 21.339 2.83811C21.421 2.92083 21.4673 3.03286 21.4679 3.14985V4.57111H22.877C22.993 4.57168 23.1041 4.6184 23.1861 4.70112C23.2681 4.78384 23.3145 4.89587 23.315 5.01286Z" fill="#1F3695"/>
</g>
<defs>
<clipPath id="clip0_158_290">
<rect width="26" height="22.2857" fill="white"/>
</clipPath>
</defs>
</svg>
