<svg width="13" height="12" viewBox="0 0 13 12" fill="none" xmlns="http://www.w3.org/2000/svg">
<g clip-path="url(#clip0_132_354)">
<path d="M6.23551 2.69627C5.96533 2.39447 5.81845 1.99365 5.82629 1.5796C5.83414 1.16555 5.99608 0.771176 6.27747 0.480892C6.55886 0.190607 6.93732 0.0274821 7.33186 0.0264333C7.72639 0.0253845 8.10564 0.186496 8.38842 0.47528L12.5662 4.93502C12.8433 5.23149 12.9985 5.63022 12.9985 6.04552C12.9985 6.46082 12.8433 6.85955 12.5662 7.15601L8.47305 11.5258C8.33534 11.6796 8.16974 11.803 7.98597 11.8888C7.80219 11.9745 7.60396 12.0208 7.40289 12.025C7.20183 12.0292 7.002 11.9912 6.81512 11.9132C6.62825 11.8352 6.4581 11.7188 6.31467 11.5709C6.17125 11.4229 6.05743 11.2463 5.9799 11.0516C5.90237 10.8568 5.86269 10.6477 5.8632 10.4366C5.86371 10.2255 5.9044 10.0167 5.98286 9.82232C6.06133 9.62796 6.176 9.45202 6.32014 9.30482L7.91552 7.59688L1.49698 7.56468C1.09659 7.56114 0.713932 7.3908 0.433192 7.09111C0.152452 6.79143 -0.00337459 6.38696 -7.58438e-06 5.96667C0.00335942 5.54639 0.165644 5.14473 0.451146 4.85004C0.736647 4.55536 1.12198 4.39179 1.52237 4.39533L7.85416 4.42642L6.23551 2.69627Z" fill="#1F3695"/>
</g>
<defs>
<clipPath id="clip0_132_354">
<rect width="13" height="12" fill="white"/>
</clipPath>
</defs>
</svg>
