<svg width="36" height="30" viewBox="0 0 36 30" fill="none" xmlns="http://www.w3.org/2000/svg">
<g clip-path="url(#clip0_132_125)">
<path d="M2.30566 0.724365H33.6885C34.2627 0.724365 34.7812 0.958496 35.1592 1.3331C35.5371 1.71064 35.7686 2.22865 35.7686 2.80227V19.6421C35.7686 20.2157 35.5342 20.7338 35.1592 21.1113C34.7842 21.4859 34.2627 21.72 33.6885 21.72H2.30566C1.73145 21.72 1.21289 21.4859 0.834961 21.1113C0.457031 20.7338 0.225586 20.2157 0.225586 19.6421V2.80227C0.225586 2.22865 0.459961 1.71064 0.834961 1.3331C1.21289 0.958496 1.73438 0.724365 2.30566 0.724365ZM19.6494 11.2515L15.498 8.35995V14.1196L19.6494 11.2515ZM15.0938 5.79622L21.791 10.4642C21.8965 10.5286 21.9902 10.6164 22.0635 10.7247C22.3564 11.149 22.251 11.7344 21.8262 12.027L15.1523 16.6365C14.9912 16.7682 14.7832 16.8472 14.5576 16.8472C14.0391 16.8472 13.6172 16.4257 13.6172 15.9077V6.563H13.6201C13.6201 6.37862 13.6758 6.19131 13.79 6.02742C14.0859 5.60306 14.6719 5.50063 15.0938 5.79622ZM18.1582 23.3736C19.0342 23.3736 19.8281 23.7306 20.4023 24.3042L20.4053 24.3072L20.4082 24.3042C20.7686 24.6642 21.0439 25.112 21.1992 25.6095H35.0625C35.5811 25.6095 36.0029 26.031 36.0029 26.549C36.0029 27.067 35.5811 27.4884 35.0625 27.4884H21.1963C21.041 27.9889 20.7686 28.4337 20.4053 28.7937C19.8311 29.3673 19.0342 29.7244 18.1582 29.7244C17.2793 29.7244 16.4854 29.3702 15.9111 28.7937C15.5508 28.4337 15.2754 27.9859 15.1201 27.4884H0.94043C0.421875 27.4884 0 27.067 0 26.549C0 26.031 0.421875 25.6095 0.94043 25.6095H15.1201C15.2754 25.1091 15.5479 24.6642 15.9111 24.3042C15.9316 24.2838 15.9521 24.2662 15.9727 24.2486C16.541 23.7072 17.3115 23.3736 18.1582 23.3736ZM19.0781 25.63C18.8438 25.3959 18.5186 25.2525 18.1582 25.2525C17.8154 25.2525 17.5049 25.3812 17.2734 25.5949L17.2383 25.6329C17.0039 25.8671 16.8574 26.1919 16.8574 26.5519C16.8574 26.9089 17.0039 27.2338 17.2383 27.4709C17.4727 27.705 17.7979 27.8513 18.1582 27.8513C18.5156 27.8513 18.8408 27.705 19.0781 27.4709C19.2979 27.2514 19.4385 26.9528 19.4561 26.6221C19.4531 26.5987 19.4531 26.5782 19.4531 26.5548C19.4531 26.5314 19.4531 26.508 19.4561 26.4875C19.4385 26.1509 19.2979 25.8524 19.0781 25.63ZM33.6885 2.60326H2.30566C2.25293 2.60326 2.20312 2.62668 2.16504 2.6618C2.12988 2.69692 2.10645 2.74667 2.10645 2.80227V19.6421C2.10645 19.6948 2.12988 19.7446 2.16504 19.7826C2.2002 19.8177 2.25 19.8411 2.30566 19.8411H33.6885C33.7412 19.8411 33.791 19.8177 33.8291 19.7826C33.8643 19.7475 33.8877 19.6977 33.8877 19.6421V2.80227C33.8877 2.74959 33.8643 2.69984 33.8291 2.6618C33.7939 2.62668 33.7441 2.60326 33.6885 2.60326Z" fill="#1F3695"/>
</g>
<defs>
<clipPath id="clip0_132_125">
<rect width="36" height="29" fill="white" transform="translate(0 0.724365)"/>
</clipPath>
</defs>
</svg>
