<svg width="22" height="23" viewBox="0 0 22 23" fill="none" xmlns="http://www.w3.org/2000/svg">
<g clip-path="url(#clip0_158_288)">
<path d="M0.00536919 11.1447C0.00395775 9.70023 0.287266 8.2697 0.839098 6.93485C1.39093 5.59999 2.20046 4.387 3.22141 3.36523C4.24235 2.34345 5.45468 1.53293 6.78908 0.980016C8.12348 0.427098 9.55379 0.142624 10.9982 0.14286C12.4431 0.141212 13.8742 0.424538 15.2095 0.976622C16.5448 1.52871 17.7582 2.33871 18.7801 3.36027C19.8019 4.38183 20.6123 5.59489 21.1649 6.93002C21.7174 8.26515 22.0012 9.69613 22 11.1411C22.0007 12.5847 21.7168 14.0143 21.1646 15.3481C20.6123 16.682 19.8026 17.8939 18.7816 18.9145C17.7607 19.9351 16.5485 20.7445 15.2145 21.2963C13.8805 21.8481 12.4508 22.1315 11.0072 22.1303C9.56346 22.1313 8.13375 21.8476 6.79981 21.2954C5.46587 20.7432 4.25389 19.9335 3.23321 18.9125C2.21253 17.8915 1.40318 16.6792 0.851463 15.3451C0.299746 14.011 0.016489 12.5812 0.0179024 11.1375L0.00536919 11.1447ZM11 16.4352L15.9271 10.9692H12.7796V7.16109H9.22038V10.9692H6.06575L11 16.4352ZM2.35612 11.1464C2.35943 13.4378 3.27088 15.6344 4.89077 17.2549C6.51066 18.8755 8.70687 19.7879 10.9982 19.7921C13.2906 19.7902 15.4887 18.8791 17.1102 17.2586C18.7316 15.6381 19.6441 13.4406 19.6475 11.1482C19.6489 10.0124 19.4264 8.8875 18.9927 7.83775C18.559 6.788 17.9227 5.83404 17.12 5.03041C16.3174 4.22678 15.3642 3.58924 14.315 3.15427C13.2658 2.71929 12.1412 2.4954 11.0054 2.4954C8.71285 2.49682 6.51471 3.40852 4.89416 5.03008C3.27361 6.65164 2.36328 8.85034 2.36328 11.1429L2.35612 11.1464Z" fill="#1F3695"/>
</g>
<defs>
<clipPath id="clip0_158_288">
<rect width="22" height="22" fill="white" transform="matrix(-1 0 0 1 22 0.142853)"/>
</clipPath>
</defs>
</svg>
