<svg width="29" height="29" viewBox="0 0 29 29" fill="none" xmlns="http://www.w3.org/2000/svg">
<g clip-path="url(#clip0_132_344)">
<path fill-rule="evenodd" clip-rule="evenodd" d="M27.1439 3.6722L1.43166 12.4704L0 8.78402L25.7122 0L27.1439 3.6722ZM29 29H1.47436V12.6663H29V29ZM25.5665 3.69344V0.556966L23.7506 1.17293V4.32121L25.5665 3.69344ZM21.9497 4.93953V1.79126L20.1262 2.40015V5.57438L21.9497 4.93953ZM18.2073 6.15259V3.03735L16.3838 3.65332V6.78271L18.2073 6.15259ZM28.4901 16.1237L27.3448 13.1642H25.4033L26.5486 16.1237H28.4901ZM24.5242 16.1237L23.3788 13.1642H21.4298L22.5826 16.1237H24.5242ZM14.5628 7.47892V4.32357L12.7418 4.93953V8.08781L14.5628 7.47892ZM20.6989 16.1237L19.5535 13.1642H17.612L18.7573 16.1237H20.6989ZM10.8204 8.6849V5.5555L8.97679 6.17147V9.31974L10.8204 8.6849ZM16.7329 16.1237L15.5876 13.1642H13.641L14.7863 16.1237H16.7329ZM7.2387 9.97819V6.82048L5.40265 7.45768V10.5871L7.2387 9.97819ZM12.8247 16.1237L11.6794 13.1642H9.73783L10.8832 16.1237H12.8247ZM3.47618 11.1842V8.05477L1.65269 8.66366V11.819L3.47618 11.1842ZM8.88134 16.1237L7.71592 13.1642H5.78945L6.91469 16.1237H8.88134ZM5.01334 16.1237L3.84791 13.1642H1.90637L3.05171 16.1237H5.01334Z" fill="#1F3695"/>
</g>
<defs>
<clipPath id="clip0_132_344">
<rect width="29" height="29" fill="white"/>
</clipPath>
</defs>
</svg>
