<svg width="26" height="23" viewBox="0 0 26 23" fill="none" xmlns="http://www.w3.org/2000/svg">
<g clip-path="url(#clip0_162_726)">
<path fill-rule="evenodd" clip-rule="evenodd" d="M20.5242 0.724379C21.7919 0.724965 23.0202 1.1688 23.9998 1.98029C24.9795 2.79178 25.6499 3.92072 25.8968 5.1748C26.1438 6.42887 25.952 7.73052 25.3542 8.858C24.7564 9.98547 23.7895 10.869 22.6182 11.3582C21.447 11.8473 20.1438 11.9118 18.9307 11.5406C17.7176 11.1694 16.6696 10.3855 15.9652 9.32248C15.2609 8.25943 14.9437 6.98296 15.0678 5.71053C15.1919 4.43809 15.7496 3.2484 16.6458 2.34411C17.1542 1.82926 17.7587 1.42106 18.4244 1.14306C19.09 0.865057 19.8037 0.72276 20.5242 0.724379ZM0.774495 3.04834C0.566302 3.04834 0.366636 2.96493 0.219421 2.81645C0.0722064 2.66797 -0.010498 2.46659 -0.010498 2.25662C-0.010498 2.04664 0.0722064 1.84526 0.219421 1.69678C0.366636 1.5483 0.566302 1.46489 0.774495 1.46489H1.92765C2.58784 1.45721 3.23779 1.62975 3.80867 1.96425C4.84969 2.63007 5.03377 3.57972 5.28979 4.651H14.113C13.988 5.1629 13.9241 5.68804 13.9226 6.21525H5.74259L7.51147 12.9289H20.0523V12.8905C20.2047 12.9012 20.357 12.9076 20.5115 12.9076C20.8988 12.9073 21.2853 12.873 21.6667 12.8051L21.3938 13.9106C21.3551 14.0829 21.259 14.2366 21.1216 14.3461C20.9841 14.4556 20.8136 14.5143 20.6384 14.5124H7.9283C8.2076 15.5538 8.48478 16.115 8.86352 16.3775C9.32056 16.6763 10.1161 16.6976 11.447 16.6763H20.448C20.5532 16.6707 20.6585 16.6869 20.7574 16.7237C20.8562 16.7605 20.9466 16.8172 21.0231 16.8903C21.0995 16.9635 21.1604 17.0516 21.202 17.1493C21.2436 17.2469 21.265 17.3521 21.265 17.4584C21.265 17.5647 21.2436 17.6699 21.202 17.7675C21.1604 17.8652 21.0995 17.9533 21.0231 18.0265C20.9466 18.0996 20.8562 18.1564 20.7574 18.1932C20.6585 18.23 20.5532 18.2461 20.448 18.2405H11.4661C9.81779 18.2597 8.80428 18.2213 7.98755 17.6793C7.17082 17.1372 6.71802 16.1556 6.28003 14.4121L3.61613 4.2498C3.61613 4.2306 3.61613 4.2306 3.59709 4.20926C3.56249 4.0265 3.49185 3.85261 3.38935 3.69791C3.28685 3.54321 3.15459 3.41086 3.00041 3.30869C2.66707 3.11848 2.28684 3.02816 1.90438 3.04834H0.774495ZM12.8795 7.86699C12.9032 7.73991 12.9702 7.62518 13.069 7.54264C13.1677 7.4601 13.2919 7.41492 13.4201 7.41492C13.5483 7.41492 13.6725 7.4601 13.7712 7.54264C13.8699 7.62518 13.9369 7.73991 13.9607 7.86699V10.8888C13.9369 11.0159 13.8699 11.1306 13.7712 11.2131C13.6725 11.2957 13.5483 11.3408 13.4201 11.3408C13.2919 11.3408 13.1677 11.2957 13.069 11.2131C12.9702 11.1306 12.9032 11.0159 12.8795 10.8888V7.86699ZM9.64217 7.86699C9.66592 7.73991 9.73294 7.62518 9.83165 7.54264C9.93036 7.4601 10.0546 7.41492 10.1828 7.41492C10.311 7.41492 10.4352 7.4601 10.5339 7.54264C10.6326 7.62518 10.6996 7.73991 10.7234 7.86699V10.8888C10.6996 11.0159 10.6326 11.1306 10.5339 11.2131C10.4352 11.2957 10.311 11.3408 10.1828 11.3408C10.0546 11.3408 9.93036 11.2957 9.83165 11.2131C9.73294 11.1306 9.66592 11.0159 9.64217 10.8888V7.86699ZM18.1248 19.1624C18.5014 19.1624 18.8696 19.2751 19.1827 19.4861C19.4959 19.6972 19.74 19.9971 19.8841 20.3481C20.0282 20.699 20.0659 21.0852 19.9925 21.4578C19.919 21.8303 19.7376 22.1725 19.4713 22.4412C19.205 22.7098 18.8657 22.8927 18.4963 22.9668C18.1269 23.0409 17.744 23.0029 17.396 22.8575C17.048 22.7121 16.7506 22.466 16.5414 22.1501C16.3321 21.8343 16.2205 21.4629 16.2205 21.0831C16.2205 20.5737 16.4211 20.0852 16.7782 19.725C17.1353 19.3648 17.6197 19.1624 18.1248 19.1624ZM9.75643 19.1624C10.1331 19.1624 10.5012 19.2751 10.8144 19.4861C11.1276 19.6972 11.3716 19.9971 11.5158 20.3481C11.6599 20.699 11.6976 21.0852 11.6241 21.4578C11.5507 21.8303 11.3693 22.1725 11.103 22.4412C10.8366 22.7098 10.4973 22.8927 10.1279 22.9668C9.75854 23.0409 9.37565 23.0029 9.02769 22.8575C8.67972 22.7121 8.38231 22.466 8.17306 22.1501C7.96382 21.8343 7.85213 21.4629 7.85213 21.0831C7.85213 20.5737 8.05276 20.0852 8.40989 19.725C8.76701 19.3648 9.25138 19.1624 9.75643 19.1624Z" fill="#1F3695"/>
<rect x="23.3533" y="3.07764" width="1.91418" height="7.65672" rx="0.95709" transform="rotate(45 23.3533 3.07764)" fill="#F7E235"/>
<rect x="20.6465" y="8.49194" width="1.91418" height="3.82836" rx="0.95709" transform="rotate(135 20.6465 8.49194)" fill="#F7E235"/>
</g>
<defs>
<clipPath id="clip0_162_726">
<rect width="26" height="22.2857" fill="white" transform="translate(0 0.724365)"/>
</clipPath>
</defs>
</svg>
