<svg width="31" height="31" viewBox="0 0 31 31" fill="none" xmlns="http://www.w3.org/2000/svg">
<circle cx="15.5" cy="15.5" r="13.75" fill="#1F3695" stroke="#F7E235" stroke-width="3.5"/>
<path d="M7.62493 15.5C7.62493 15.8481 7.76321 16.182 8.00936 16.4281C8.2555 16.6742 8.58934 16.8125 8.93743 16.8125L19.3324 16.8125L15.8849 20.26C15.6531 20.5088 15.5269 20.8379 15.5329 21.1779C15.5389 21.518 15.6766 21.8424 15.9171 22.0829C16.1576 22.3233 16.482 22.4611 16.822 22.4671C17.162 22.4731 17.4911 22.3469 17.7399 22.115L23.4274 16.4275C23.6732 16.1814 23.8113 15.8478 23.8113 15.5C23.8113 15.1522 23.6732 14.8186 23.4274 14.5725L17.7399 8.88502C17.6198 8.75607 17.4749 8.65264 17.3139 8.58091C17.1529 8.50917 16.9791 8.4706 16.8028 8.46749C16.6266 8.46438 16.4516 8.4968 16.2881 8.56281C16.1247 8.62882 15.9762 8.72707 15.8516 8.85171C15.727 8.97634 15.6287 9.1248 15.5627 9.28823C15.4967 9.45166 15.4643 9.62671 15.4674 9.80294C15.4705 9.97917 15.5091 10.153 15.5808 10.314C15.6526 10.475 15.756 10.6199 15.8849 10.74L19.3324 14.1875L8.93743 14.1875C8.21293 14.1875 7.62493 14.7755 7.62493 15.5Z" fill="#F7E235"/>
</svg>
