<?xml version="1.0" encoding="utf-8"?>
<!-- Generator: Adobe Illustrator 23.0.1, SVG Export Plug-In . SVG Version: 6.00 Build 0)  -->
<svg version="1.1" id="Capa_1" xmlns="http://www.w3.org/2000/svg" xmlns:xlink="http://www.w3.org/1999/xlink" x="0px" y="0px"
	 viewBox="0 0 23 22.2" style="enable-background:new 0 0 23 22.2;" xml:space="preserve">
<style type="text/css">
	.st0{fill:#FFFFFF;}
</style>
<g>
	<path class="st0" d="M20.5,7.4h-1.2c0,0,0,0,0,0h-0.6V2.5c0-0.2-0.2-0.4-0.4-0.4h-0.8V1.5c0-0.2-0.2-0.4-0.4-0.4H6.3
		c-0.2,0-0.4,0.2-0.4,0.4v0.6H5.1c-0.2,0-0.4,0.2-0.4,0.4v4.9H4c0,0,0,0,0,0H2.8C1.8,7.4,1,8.2,1,9.2v9.6c0,0.2,0.2,0.4,0.4,0.4h1.2
		v0.9c0,0.2,0.2,0.4,0.4,0.4h2c0.2,0,0.4-0.2,0.4-0.4v-0.9h0.4v1.4c0,0.2,0.2,0.4,0.4,0.4H17c0.2,0,0.4-0.2,0.4-0.4v-1.4h0.4V20
		c0,0.2,0.2,0.4,0.4,0.4h2c0.2,0,0.4-0.2,0.4-0.4v-0.7h1.2c0.2,0,0.4-0.2,0.4-0.4V9.2C22.3,8.2,21.5,7.4,20.5,7.4z M4.4,8.2h14.5
		v2.3c0,0.6-0.6,1.2-1.3,1.2H5.7c-0.7,0-1.3-0.5-1.3-1.2V8.2z M17.8,2.9v4.4h-0.4V2.9H17.8z M16.6,1.9v5.4H6.7V1.9H16.6z M5.5,2.9
		h0.4v4.4H5.5V2.9z M4.6,19.7H3.5v-0.5h1.2V19.7z M5.9,16.3H5.4c-0.2,0-0.3-0.2-0.3-0.3v-1.1c0-0.2,0.2-0.3,0.3-0.3h0.5V16.3z
		 M6.7,20.2v-5.7h9.8v5.7H6.7z M17.9,14.5c0.2,0,0.3,0.2,0.3,0.3v1.1c0,0.2-0.2,0.3-0.3,0.3h-0.5v-1.7H17.9z M19.9,19.6h-1.2v-0.3
		h1.2V19.6z M21.5,18.4h-4.1v-1.3h0.5c0.7,0,1.2-0.5,1.2-1.2v-1.1c0-0.7-0.5-1.2-1.2-1.2H17c0,0,0,0,0,0H6.3c0,0,0,0,0,0H5.4
		c-0.7,0-1.2,0.5-1.2,1.2v1.1c0,0.7,0.5,1.2,1.2,1.2h0.5v1.3H1.8V9.2c0-0.6,0.4-1,1-1h0.8v2.3c0,1.1,1,2,2.1,2h11.9
		c1.2,0,2.1-0.9,2.1-2V8.2h0.8c0.6,0,1,0.4,1,1V18.4z"/>
	<path class="st0" d="M13.6,11.3c0.7,0,1.2-0.5,1.2-1.2c0-0.7-0.5-1.2-1.2-1.2c-0.7,0-1.2,0.5-1.2,1.2
		C12.4,10.8,12.9,11.3,13.6,11.3z M13.6,9.7c0.2,0,0.4,0.2,0.4,0.4c0,0.2-0.2,0.4-0.4,0.4c-0.2,0-0.4-0.2-0.4-0.4
		C13.2,9.9,13.4,9.7,13.6,9.7z"/>
	<path class="st0" d="M16.5,11.3c0.7,0,1.2-0.5,1.2-1.2c0-0.7-0.5-1.2-1.2-1.2c-0.7,0-1.2,0.5-1.2,1.2
		C15.3,10.8,15.8,11.3,16.5,11.3z M16.5,9.7c0.2,0,0.4,0.2,0.4,0.4c0,0.2-0.2,0.4-0.4,0.4c-0.2,0-0.4-0.2-0.4-0.4
		C16.1,9.9,16.3,9.7,16.5,9.7z"/>
	<rect x="7.9" y="15.1" class="st0" width="7.4" height="0.8"/>
	<rect x="7.9" y="16.4" class="st0" width="7.4" height="0.8"/>
	<rect x="7.9" y="17.7" class="st0" width="7.4" height="0.8"/>
</g>
</svg>
