<svg id="Capa_1" data-name="Capa 1" xmlns="http://www.w3.org/2000/svg" viewBox="0 0 35.92 34.33"><defs><style>.cls-1{fill:#fadf63;}</style></defs><title>star-rating</title><path class="cls-1" d="M20.08,1.35l4.19,8.48a1.75,1.75,0,0,0,1.33,1L35,12.15a1.76,1.76,0,0,1,1,3l-6.77,6.61a1.72,1.72,0,0,0-.51,1.55l1.6,9.33a1.76,1.76,0,0,1-2.55,1.85l-8.37-4.4a1.76,1.76,0,0,0-1.64,0l-8.38,4.4a1.76,1.76,0,0,1-2.55-1.85l1.6-9.33a1.75,1.75,0,0,0-.5-1.55L1.08,15.15a1.76,1.76,0,0,1,1-3l9.36-1.36a1.73,1.73,0,0,0,1.32-1l4.19-8.48A1.75,1.75,0,0,1,20.08,1.35Z" transform="translate(-0.55 -0.37)"/></svg>